<svg width="33" height="21" fill="none" xmlns="http://www.w3.org/2000/svg"><g clip-path="url(#clip0)"><path d="M10.402 12.561l-.739 2.599-2.699.054a9.507 9.507 0 01-.078-9.338l2.404.415 1.052 2.252a5.637 5.637 0 00.06 4.018z" fill="#FFB819"/><path d="M26.729 8.606a9.457 9.457 0 01-.047 3.957c-.516 2.292-1.865 4.293-3.735 5.71l-3.027-.146-.428-2.521c1.24-.686 2.21-1.759 2.72-3.043H16.54V8.605h10.189z" fill="#2F80ED"/><path d="M22.947 18.272c-1.817 1.378-4.127 2.202-6.64 2.202-4.04 0-7.552-2.128-9.343-5.26L10.4 12.56c.896 2.254 3.202 3.859 5.906 3.859 1.162 0 2.25-.296 3.185-.813l3.455 2.666z" fill="#27AE60"/><path d="M23.077 2.777l-3.436 2.652a6.553 6.553 0 00-3.334-.899c-2.765 0-5.114 1.678-5.965 4.013L6.886 5.876C8.65 2.666 12.207.475 16.306.475c2.575 0 4.934.864 6.771 2.302z" fill="#FF444F"/></g><defs><clipPath id="clip0"><path fill="#fff" transform="translate(.396 .475)" d="M0 0h31.821v20H0z"/></clipPath></defs></svg>